<svg id="Layer_1" xmlns="http://www.w3.org/2000/svg" viewBox="0 0 525.6 169.2" width="525.6" height="169.2">
  <g id="s9QgqL">
    <path d="M105.2,0c-1.3-.9-19.6,6.2-22.3,7.4C49,21.9-10.7,62.1,26.1,103.3c11.4,12.8,28.3,19.4,45,21.9l1.1-.8.5-5.6c-19.5-2.3-42.7-13.2-50-32.6-10.4-27.7,26.8-54.3,47.5-65.5,11.5-6.2,23.8-11.3,36.4-14.7l-1.5-5.9ZM165.7,169.2h21.5v-38.7c0-1.1-2.6-5-3.5-5.9l-21.9-16.6,7.9-17.1,8.7,7c8.2-.7,18.4,1.1,26.4,0s10.7-12.1,5.7-18.1-15.3-3.1-22-3.9l-7.6-8.4v-1c15.6-15.4,4.3-40.1-17.9-37.9s-21.4,15.6-17.7,27.4l-24.4,4.8c-3.5,5.2-17.7,17.5-18.5,23-1.2,8.3,5.5,14.4,13.7,13.1s10.4-10,14-13.5c.7-.5,3.2-1.1,2.8.3l-26.2,46.2-23.7-4.5-4.8,20.4c11.1,2.8,22.1,6.5,33.3,8.6,9.2,1.8,11.6-1,17.1-7.7,3.5-4.3,6.5-9.2,10-13.5l1.9-.4,24.6,11.9.7,24.5ZM62.8,136.3c-24.7-6.7-51.4-24.8-55.7-51.8-2.7-16.8,3.8-31.9,15.3-43.8l-4.2-4.7C-1.4,55.3-6.1,82.4,8.7,106.3c8.9,14.4,23.4,25,38.8,31.6,2,.9,12.5,5.2,13.8,4.3l1.5-5.9ZM81.8,97.8c-11.3,0-33.3-2.6-37.5-15.2s3.5-20.5,9-28l-5.5-3.5c-11.1,14.9-17.8,35.4,2,46.5,9.3,5.2,20.7,6.4,31.1,6.7,1.5-.5.5-5,.8-6.4Z" fill="#fff" />
    <path d="M165.7,169.2l-.7-24.5-24.6-11.9-1.9.4c-3.5,4.3-6.5,9.2-10,13.5-5.5,6.7-7.9,9.5-17.1,7.7-11.2-2.2-22.3-5.8-33.3-8.6l4.8-20.4,23.7,4.5,26.2-46.2c.4-1.3-2-.7-2.8-.3-3.6,3.5-9,12.7-14,13.5-8.1,1.3-14.9-4.9-13.7-13.1s15-17.7,18.5-23l24.4-4.8c-3.7-11.9,5.1-26.2,17.7-27.4,22.2-2.2,33.6,22.5,17.9,37.9v1s7.6,8.4,7.6,8.4c6.7.8,17.1-2,22,3.9s2.3,17-5.7,18.1-18.2-.7-26.4,0l-8.7-7-7.9,17.1,21.9,16.6c.9,1,3.5,4.8,3.5,5.9v38.7h-21.5ZM155.4,39.1c-14.4,14.4,7.7,36.5,22.1,21.8,14-14.3-7.8-36.1-22.1-21.8ZM172.4,162.7h8.2v-31.2c0-.6-2.1-2.7-2.8-3.2l-24.7-18.3,14.5-29.7,13.2,11h22.8c3.6-1.2,3.9-6.3.8-8.2s-14.7,0-19.1-.9l-10.3-11.7c-.9-.4-5.4,1.2-7.2,1.3-7.8.5-15.8-3.1-19.8-9.9l-23.8,4.7c-3.2,3.5-6.7,7-9.8,10.7s-4.8,5.3-5.4,6.6c-1.5,3.6,1.5,7.1,5.3,6.3s10.4-11.7,13.1-13.9l15.6.7-33.2,59.6-1.9.5-20-4.5-2.3,8.2,28.9,7.7c2.8.6,4.8-1.2,6.6-3.1,5.5-6.1,10.4-14.6,15.5-21.2l34.3,16,.6,21.1.7,1.2Z" />
    <path d="M105.2,0l1.5,5.9c-12.7,3.4-24.9,8.5-36.4,14.7C49.6,31.9,12.4,58.5,22.8,86.2c7.3,19.5,30.5,30.3,50,32.6l-.5,5.6-1.1.8c-16.7-2.6-33.5-9.1-45-21.9C-10.7,62.1,49,21.9,82.9,7.4c2.7-1.2,21-8.3,22.3-7.4Z" />
    <path d="M62.8,136.3l-1.5,5.9c-1.3.8-11.7-3.5-13.8-4.3-15.4-6.6-29.9-17.2-38.8-31.6C-6.1,82.4-1.4,55.3,18.1,36l4.2,4.7c-11.5,12-18,27-15.3,43.8,4.4,27,31.1,45.1,55.7,51.8Z" />
    <path d="M81.8,97.8c-.3,1.4.7,5.9-.8,6.4-10.5-.2-21.9-1.5-31.1-6.7-19.8-11.1-13.1-31.6-2-46.5l5.5,3.5c-5.4,7.4-12.1,18.5-9,28s26.1,15.2,37.5,15.2Z" />
  </g>
  <path d="M268.1,76.1l-2.5-10.2h-13.9l-2.5,10.2h-10.6l13.7-43h12.5l13.7,43h-10.5ZM260.7,48.4c-.2-.8-.5-1.7-.7-2.6-.2-.9-.5-1.9-.7-2.9-.2-1-.4-2-.6-3.1-.3,1.6-.6,3.1-1,4.6-.4,1.5-.7,2.8-1,4l-2.8,10h9.6l-2.8-10Z" />
  <path d="M294.8,76.7c-3.1,0-5.8-.6-8-1.8-2.2-1.2-4-3-5.2-5.5-1.2-2.5-1.8-5.7-1.8-9.5s.7-7.3,2-9.8c1.3-2.5,3.2-4.4,5.6-5.6,2.4-1.2,5.1-1.8,8.2-1.8s3.9.2,5.6.7c1.7.4,3.2,1,4.3,1.6l-2.8,6.7c-1.2-.5-2.3-.9-3.3-1.3-1-.3-2-.5-3.2-.5s-2.6.4-3.6,1.1c-1,.7-1.7,1.8-2.2,3.3-.5,1.5-.8,3.3-.8,5.5s.3,4,.8,5.4c.5,1.4,1.3,2.5,2.3,3.2,1,.7,2.1,1,3.5,1s3-.2,4.4-.8c1.4-.5,2.7-1.2,3.9-2.1v7.6c-1.3.9-2.7,1.5-4.2,1.9-1.5.4-3.3.6-5.4.6Z" />
  <path d="M324,69.6c1,0,1.8,0,2.7-.3.8-.2,1.7-.4,2.6-.7v6.7c-1,.4-2.2.8-3.5,1-1.3.3-2.9.5-4.7.5s-3.6-.3-5.1-1c-1.5-.6-2.7-1.7-3.5-3.3-.8-1.6-1.3-3.8-1.3-6.6v-15.8h-3.9v-3.8l4.7-3,2.6-6.9h6.2v7h8.2v6.7h-8.2v15.8c0,1.2.3,2.2.9,2.8.6.6,1.4.9,2.4.9Z" />
  <path d="M338.8,30.5c1.4,0,2.6.3,3.6.9,1,.6,1.5,1.8,1.5,3.4s-.5,2.8-1.5,3.4c-1,.6-2.2,1-3.6,1s-2.7-.3-3.7-1c-1-.6-1.5-1.8-1.5-3.4s.5-2.8,1.5-3.4c1-.6,2.2-.9,3.7-.9ZM343.5,43.4v32.8h-9.6v-32.8h9.6Z" />
  <path d="M358.2,76.1l-11.8-32.8h10l5.5,18.7c.2.7.4,1.5.5,2.3.1.8.2,1.6.3,2.3,0,.8.1,1.5.1,2.1h.2c0-.7,0-1.4.2-2.2,0-.8.2-1.5.3-2.3.2-.8.3-1.5.5-2.2l5.5-18.7h10.1l-11.8,32.8h-9.7Z" />
  <path d="M396,42.8c2.9,0,5.4.6,7.6,1.7,2.1,1.2,3.8,2.8,4.9,5,1.2,2.2,1.7,4.9,1.7,8.1v4.3h-19.5c0,2.5.7,4.5,2,5.9,1.2,1.4,3,2.2,5.2,2.2s3.8-.2,5.4-.6c1.6-.4,3.3-1.1,5-2v6.9c-1.5.8-3.1,1.4-4.8,1.8-1.7.4-3.9.6-6.5.6s-5.9-.6-8.3-1.8c-2.4-1.2-4.3-3.1-5.7-5.5-1.4-2.5-2.1-5.6-2.1-9.4s.6-7,1.9-9.6c1.3-2.5,3-4.4,5.3-5.7,2.3-1.3,4.9-1.9,7.8-1.9ZM396.2,49.1c-1.4,0-2.6.6-3.6,1.7-1,1.1-1.5,2.9-1.7,5.2h10.5c0-1.3-.2-2.5-.6-3.5-.4-1-1-1.9-1.7-2.5s-1.7-.9-2.9-.9Z" />
  <path d="M429.6,76.1v-42.8h9.7v35.3h15.9v7.5h-25.6Z" />
  <path d="M464.9,30.5c1.4,0,2.6.3,3.6.9,1,.6,1.5,1.8,1.5,3.4s-.5,2.8-1.5,3.4c-1,.6-2.2,1-3.6,1s-2.7-.3-3.7-1c-1-.6-1.5-1.8-1.5-3.4s.5-2.8,1.5-3.4c1-.6,2.2-.9,3.7-.9ZM469.7,43.4v32.8h-9.6v-32.8h9.6Z" />
  <path d="M494.7,50.1h-7v26h-9.6v-26h-4.4v-4.3l4.5-2.4v-2.4c0-2.8.4-5,1.2-6.5.8-1.5,2-2.6,3.6-3.3,1.6-.6,3.6-1,5.9-1s3.1.1,4.4.4c1.3.3,2.5.6,3.7,1l-2.2,6.5c-.6-.2-1.3-.4-2-.6-.7-.2-1.5-.3-2.3-.3s-1.7.4-2.2,1.1c-.5.8-.7,1.7-.7,2.9v2h7v6.7Z" />
  <path d="M511.4,42.8c2.9,0,5.4.6,7.6,1.7,2.1,1.2,3.8,2.8,4.9,5,1.2,2.2,1.7,4.9,1.7,8.1v4.3h-19.5c0,2.5.7,4.5,2,5.9,1.2,1.4,3,2.2,5.2,2.2s3.8-.2,5.4-.6c1.6-.4,3.3-1.1,5-2v6.9c-1.5.8-3.1,1.4-4.8,1.8-1.7.4-3.9.6-6.5.6s-5.9-.6-8.3-1.8c-2.4-1.2-4.3-3.1-5.7-5.5-1.4-2.5-2.1-5.6-2.1-9.4s.6-7,1.9-9.6c1.3-2.5,3-4.4,5.3-5.7,2.3-1.3,4.9-1.9,7.8-1.9ZM511.5,49.1c-1.4,0-2.6.6-3.6,1.7-1,1.1-1.5,2.9-1.7,5.2h10.5c0-1.3-.2-2.5-.6-3.5-.4-1-1-1.9-1.7-2.5s-1.7-.9-2.9-.9Z" />
  <path d="M272.7,98.1c-3.2,0-6,.6-8.5,1.8-2.5,1.2-4.7,2.9-6.4,5.1-1.8,2.2-3.1,5-4,8.2-.9,3.2-1.4,6.8-1.4,10.8s.8,9.9,2.2,13.8c1.5,3.9,3.8,6.9,6.8,9,3,2.1,6.8,3.1,11.3,3.1s5.1-.2,7.5-.7c2.4-.5,4.7-1.1,7.1-1.8v7c-2.3.9-4.6,1.6-7,2-2.4.4-5.3.6-8.6.6-6.2,0-11.3-1.4-15.4-4-4.1-2.7-7.2-6.5-9.2-11.5-2-5-3.1-10.8-3.1-17.6s.6-9.3,1.9-13.3c1.3-4,3.1-7.5,5.6-10.4,2.5-2.9,5.5-5.2,9.1-6.8,3.6-1.6,7.7-2.4,12.4-2.4s6,.3,8.9,1c2.9.7,5.5,1.6,7.8,2.8l-3.1,6.8c-1.9-.9-3.9-1.7-6.3-2.4-2.3-.7-4.8-1.1-7.4-1.1Z" />
  <path d="M316,107c3.9,0,7.3.9,10.1,2.7,2.8,1.8,5,4.3,6.5,7.6,1.5,3.3,2.3,7.1,2.3,11.5v4.8h-31c.1,5.5,1.4,9.6,3.9,12.5,2.5,2.9,5.9,4.3,10.4,4.3s5.4-.3,7.7-.9c2.2-.6,4.6-1.4,7-2.5v6.9c-2.3,1.1-4.6,1.9-6.9,2.4-2.2.5-5,.8-8.1.8s-8.1-.9-11.4-2.8c-3.3-1.9-5.9-4.6-7.7-8.3-1.9-3.7-2.8-8.2-2.8-13.5s.8-9.8,2.5-13.6c1.7-3.8,4-6.7,7.1-8.7,3-2,6.6-3.1,10.6-3.1ZM316,113.5c-3.5,0-6.2,1.2-8.3,3.6-2,2.4-3.2,5.8-3.6,10.1h22.7c0-2.8-.4-5.2-1.2-7.2-.8-2-2-3.6-3.6-4.8-1.6-1.2-3.6-1.8-6.1-1.8Z" />
  <path d="M367.5,107c5.4,0,9.5,1.4,12.3,4.2s4.2,7.3,4.2,13.5v31.4h-7.8v-30.9c0-3.9-.8-6.8-2.4-8.7-1.6-1.9-4.1-2.9-7.5-2.9-4.9,0-8.3,1.5-10.2,4.5-1.9,3-2.8,7.3-2.8,13v25h-7.8v-48.2h6.3l1.2,6.6h.5c1-1.7,2.2-3.1,3.7-4.2,1.5-1.1,3.2-1.9,5-2.5s3.7-.8,5.6-.8Z" />
  <path d="M412.5,150.6c1.1,0,2.3-.1,3.5-.3,1.2-.2,2.2-.4,3-.7v6c-.8.4-2,.8-3.6,1-1.5.3-3,.4-4.4.4-2.4,0-4.6-.4-6.7-1.3-2-.9-3.7-2.4-4.9-4.5-1.2-2.2-1.8-5.2-1.8-9.1v-28.1h-6.4v-3.8l6.6-3.1,3-10.3h4.7v11.1h13.1v6.1h-13.1v27.9c0,2.9.7,5.1,2,6.5,1.3,1.4,3,2.1,5,2.1Z" />
  <path d="M448.6,107c.8,0,1.7,0,2.7.1,1,0,1.8.2,2.5.4l-.9,7.3c-.7-.2-1.5-.3-2.4-.4-.9-.1-1.7-.2-2.5-.2-1.7,0-3.4.4-5,1.2-1.6.8-3,1.9-4.2,3.3-1.2,1.4-2.2,3.1-2.9,5.1-.7,2-1.1,4.2-1.1,6.7v25.7h-7.8v-48.2h6.4l.9,8.8h.4c1-1.8,2.1-3.4,3.5-4.9,1.4-1.5,2.9-2.6,4.6-3.5,1.7-.9,3.7-1.3,5.8-1.3Z" />
  <path d="M479.1,107c3.9,0,7.3.9,10.1,2.7,2.8,1.8,5,4.3,6.5,7.6,1.5,3.3,2.3,7.1,2.3,11.5v4.8h-31c.1,5.5,1.4,9.6,3.9,12.5,2.5,2.9,5.9,4.3,10.4,4.3s5.4-.3,7.7-.9c2.2-.6,4.6-1.4,7-2.5v6.9c-2.3,1.1-4.6,1.9-6.9,2.4-2.2.5-5,.8-8.1.8s-8.1-.9-11.4-2.8c-3.3-1.9-5.9-4.6-7.7-8.3-1.9-3.7-2.8-8.2-2.8-13.5s.8-9.8,2.5-13.6c1.7-3.8,4-6.7,7.1-8.7,3-2,6.6-3.1,10.6-3.1ZM479.1,113.5c-3.5,0-6.2,1.2-8.3,3.6-2,2.4-3.2,5.8-3.6,10.1h22.7c0-2.8-.4-5.2-1.2-7.2-.8-2-2-3.6-3.6-4.8-1.6-1.2-3.6-1.8-6.1-1.8Z" />
</svg>